<?xml version="1.0" encoding="UTF-8"?>
<svg id="Capa_1" data-name="Capa 1" xmlns="http://www.w3.org/2000/svg" viewBox="0 0 512 512">
  <defs>
    <style>
      .cls-1 {
        fill: #e51b71;
      }
    </style>
  </defs>
  <path class="cls-1" d="M132.52,201.52l2.66.7,17.42,21.55c-2.25,11.53-5.2,22.25-4.37,34.24,3.09,44.55,56.8,32.8,83.85,18.67-.18-.85-.45-1.67-1.03-2.34-2.78-3.19-11.28-8.26-15.08-11.48-35.35-29.9-70.95-73.02-86.47-117.09-27.95-79.34,18.51-125.33,97.69-97.69,11.13,3.89,21.28,9.87,32.17,14.28,33.39-16.77,84.54-36.12,117.48-9.01,30.9,25.43,22.02,72.32,8.01,104.52-3.06,7.02-7.51,13.51-9.85,20.77,19.06,33.96,37.41,90.27,4.88,121.7-31.32,30.26-87.48,11.06-120.53-6.82-34.77,19.24-95.26,38.59-124.91,1.49-21.35-26.72-12.89-64.31-1.93-93.49ZM163.04,149.72c19.11-26.61,43.05-49.36,68.98-69.14.49-2.25-8.3-5.33-10.26-6.1-27.13-10.65-70.69-16.68-73.52,23.39-1.28,18.1,4.78,35.42,11.3,51.91l3.5-.07ZM355.77,149.64c3.43,2.94,4.94-3.73,6.11-6.52,10.98-26.03,19.55-73.28-20.9-76.34-48.92-3.71-109.28,42.94-139.99,77.85-3.83,4.36-25.11,30.04-24.71,33.77s18.49,26,22.12,30.21c13.92,16.11,32.15,33.19,49.44,45.61,2.44,1.75,9.67,7.43,12.24,7.18,2.01-.19,18.16-12.73,20.98-15,14.01-11.23,28.28-24.96,40.04-38.54,3.28-3.78,21.44-26.23,21.73-29.21.21-2.16-10.06-16.88-12.2-17.76-7.39.65-14.04,2.29-21.68.78-34.2-6.76-43.98-53.76-14.56-73.34,31.97-21.28,71.85,8.06,61.53,45.07-1.66,5.96-6.4,10.85-.14,16.23ZM331.13,121.77c0-7.7-6.24-13.94-13.94-13.94s-13.94,6.24-13.94,13.94,6.24,13.94,13.94,13.94,13.94-6.24,13.94-13.94ZM357.41,205.29c-13.99,17.67-29.26,35.4-46.02,50.51-6.99,6.3-15.85,11.67-22.47,17.94-1.02.97-2.58,1.68-1.51,3.02,2.47,3.09,20.73,8.8,25.32,9.87,53.12,12.37,67.74-16.84,52.74-63.97-.84-2.65-5.99-17.36-8.06-17.37Z"/>
  <g>
    <polygon class="cls-1" points="266.48 366.92 275.08 429.8 284.81 366.92 315.87 366.92 315.87 470.95 297.16 470.95 297.16 396.86 284.49 470.63 266.56 470.87 253.01 397.61 253.01 470.95 235.04 470.95 235.04 366.92 266.48 366.92"/>
    <path class="cls-1" d="M188.48,366.38c17.57-2.14,29.32,5.21,30.84,23.38,1.07,12.83,1.63,51.85-1.08,63.27-6.42,27.14-47.02,25.29-49.79-4.91-1.12-12.22-1.58-54.9,1.11-65.48,2.38-9.35,9.38-15.09,18.92-16.25ZM192.17,385.03c-1.78.53-3.59,3.58-3.54,5.45,1.28,17.83-1.65,37.87-.01,55.43.85,9.13,8.9,9.76,9.76,1.47,1.85-17.88-1.4-38.71.04-56.91.05-3.8-2.22-6.64-6.24-5.43Z"/>
    <polygon class="cls-1" points="464.81 366.92 464.81 387.13 444.6 387.13 444.6 407.34 464.06 407.34 464.06 426.8 444.6 426.8 444.6 450.75 466.3 450.75 466.3 470.95 423.64 470.95 423.64 366.92 464.81 366.92"/>
    <polygon class="cls-1" points="410.17 366.92 410.17 384.51 385.48 452.24 408.68 452.24 408.68 470.95 364.52 470.95 364.52 451.12 387.72 385.63 366.77 385.63 366.77 366.92 410.17 366.92"/>
    <polygon class="cls-1" points="155.71 366.92 155.71 386.38 143.74 386.38 143.74 470.95 122.78 470.95 122.78 386.38 110.81 386.38 110.81 366.92 155.71 366.92"/>
    <rect class="cls-1" x="331.59" y="366.92" width="19.46" height="104.03"/>
    <path class="cls-1" d="M90.6,366.92l9.73,104.03h-19.46l-1.93-17.26-12.28.05-1.5,17.21h-19.46l9.73-104.03h35.18ZM73.38,384.14c-1.73-.11-1.33-.27-1.5,1.11-.29,2.47.2,5.07-.74,7.5l-3,45.28h9.74s-4.5-53.89-4.5-53.89Z"/>
  </g>
</svg>